<mxfile host="drawio-plugin" modified="2023-10-12T09:42:39.779Z" agent="5.0 (Macintosh; Intel Mac OS X 10_15_7) AppleWebKit/537.36 (KHTML, like Gecko) Chrome/111.0.0.0 Safari/537.36" etag="e31D5zE1bC1QmPDbZWD7" version="20.5.3" type="embed"><diagram id="C5RBs43oDa-KdzZeNtuy" name="Page-1"><mxGraphModel dx="824" dy="487" grid="1" gridSize="10" guides="1" tooltips="1" connect="1" arrows="1" fold="1" page="1" pageScale="1" pageWidth="827" pageHeight="1169" math="0" shadow="0"><root><mxCell id="WIyWlLk6GJQsqaUBKTNV-0"/><mxCell id="WIyWlLk6GJQsqaUBKTNV-1" parent="WIyWlLk6GJQsqaUBKTNV-0"/><mxCell id="zkfFHV4jXpPFQw0GAbJ--0" value="AbstractTask " style="swimlane;fontStyle=2;align=center;verticalAlign=top;childLayout=stackLayout;horizontal=1;startSize=26;horizontalStack=0;resizeParent=1;resizeLast=0;collapsible=1;marginBottom=0;rounded=0;shadow=0;strokeWidth=1;" parent="WIyWlLk6GJQsqaUBKTNV-1" vertex="1"><mxGeometry x="240" y="120" width="230" height="220" as="geometry"><mxRectangle x="220" y="120" width="160" height="26" as="alternateBounds"/></mxGeometry></mxCell><mxCell id="zkfFHV4jXpPFQw0GAbJ--1" value="Fields:&#10;private final String name;&#10;private final String description;&#10;private final int id; &#10;private Status status;&#10;" style="text;align=left;verticalAlign=top;spacingLeft=4;spacingRight=4;overflow=hidden;rotatable=0;points=[[0,0.5],[1,0.5]];portConstraint=eastwest;" parent="zkfFHV4jXpPFQw0GAbJ--0" vertex="1"><mxGeometry y="26" width="230" height="84" as="geometry"/></mxCell><mxCell id="zkfFHV4jXpPFQw0GAbJ--4" value="" style="line;html=1;strokeWidth=1;align=left;verticalAlign=middle;spacingTop=-1;spacingLeft=3;spacingRight=3;rotatable=0;labelPosition=right;points=[];portConstraint=eastwest;" parent="zkfFHV4jXpPFQw0GAbJ--0" vertex="1"><mxGeometry y="110" width="230" height="8" as="geometry"/></mxCell><mxCell id="zkfFHV4jXpPFQw0GAbJ--5" value="Methods:&#10;public String getName();&#10;public String getDescription; &#10;public int getId(); &#10;public status setStatus(Status status)&#10;public Status getStatus();" style="text;align=left;verticalAlign=top;spacingLeft=4;spacingRight=4;overflow=hidden;rotatable=0;points=[[0,0.5],[1,0.5]];portConstraint=eastwest;" parent="zkfFHV4jXpPFQw0GAbJ--0" vertex="1"><mxGeometry y="118" width="230" height="102" as="geometry"/></mxCell><mxCell id="zkfFHV4jXpPFQw0GAbJ--6" value="Epic" style="swimlane;fontStyle=0;align=center;verticalAlign=top;childLayout=stackLayout;horizontal=1;startSize=26;horizontalStack=0;resizeParent=1;resizeLast=0;collapsible=1;marginBottom=0;rounded=0;shadow=0;strokeWidth=1;" parent="WIyWlLk6GJQsqaUBKTNV-1" vertex="1"><mxGeometry x="130" y="400" width="230" height="150" as="geometry"><mxRectangle x="130" y="380" width="160" height="26" as="alternateBounds"/></mxGeometry></mxCell><mxCell id="zkfFHV4jXpPFQw0GAbJ--7" value="private List&lt;Subtask&gt; list; &#10;" style="text;align=left;verticalAlign=top;spacingLeft=4;spacingRight=4;overflow=hidden;rotatable=0;points=[[0,0.5],[1,0.5]];portConstraint=eastwest;" parent="zkfFHV4jXpPFQw0GAbJ--6" vertex="1"><mxGeometry y="26" width="230" height="26" as="geometry"/></mxCell><mxCell id="zkfFHV4jXpPFQw0GAbJ--9" value="" style="line;html=1;strokeWidth=1;align=left;verticalAlign=middle;spacingTop=-1;spacingLeft=3;spacingRight=3;rotatable=0;labelPosition=right;points=[];portConstraint=eastwest;" parent="zkfFHV4jXpPFQw0GAbJ--6" vertex="1"><mxGeometry y="52" width="230" height="28" as="geometry"/></mxCell><mxCell id="elmlWudnamhMmCJbLNU5-26" value="&lt;span style=&quot;font-size: 12px;&quot;&gt;&lt;i&gt;Methods:&lt;br&gt;public void addToList(SubTask subtask)&lt;br&gt;public List&amp;lt;Subtask&amp;gt; getList();&lt;br&gt;&lt;/i&gt;&lt;/span&gt;" style="text;html=1;align=left;verticalAlign=middle;resizable=0;points=[];autosize=1;strokeColor=none;fillColor=none;fontSize=16;" parent="zkfFHV4jXpPFQw0GAbJ--6" vertex="1"><mxGeometry y="80" width="230" height="70" as="geometry"/></mxCell><mxCell id="zkfFHV4jXpPFQw0GAbJ--12" value="" style="endArrow=block;endSize=10;endFill=0;shadow=0;strokeWidth=1;rounded=0;edgeStyle=elbowEdgeStyle;elbow=vertical;" parent="WIyWlLk6GJQsqaUBKTNV-1" source="zkfFHV4jXpPFQw0GAbJ--6" target="zkfFHV4jXpPFQw0GAbJ--0" edge="1"><mxGeometry width="160" relative="1" as="geometry"><mxPoint x="200" y="203" as="sourcePoint"/><mxPoint x="200" y="203" as="targetPoint"/></mxGeometry></mxCell><mxCell id="zkfFHV4jXpPFQw0GAbJ--13" value="SubTask" style="swimlane;fontStyle=0;align=center;verticalAlign=top;childLayout=stackLayout;horizontal=1;startSize=26;horizontalStack=0;resizeParent=1;resizeLast=0;collapsible=1;marginBottom=0;rounded=0;shadow=0;strokeWidth=1;" parent="WIyWlLk6GJQsqaUBKTNV-1" vertex="1"><mxGeometry x="400" y="400" width="160" height="100" as="geometry"><mxRectangle x="340" y="380" width="170" height="26" as="alternateBounds"/></mxGeometry></mxCell><mxCell id="zkfFHV4jXpPFQw0GAbJ--14" value="private Epic epic;" style="text;align=left;verticalAlign=top;spacingLeft=4;spacingRight=4;overflow=hidden;rotatable=0;points=[[0,0.5],[1,0.5]];portConstraint=eastwest;" parent="zkfFHV4jXpPFQw0GAbJ--13" vertex="1"><mxGeometry y="26" width="160" height="26" as="geometry"/></mxCell><mxCell id="zkfFHV4jXpPFQw0GAbJ--15" value="" style="line;html=1;strokeWidth=1;align=left;verticalAlign=middle;spacingTop=-1;spacingLeft=3;spacingRight=3;rotatable=0;labelPosition=right;points=[];portConstraint=eastwest;" parent="zkfFHV4jXpPFQw0GAbJ--13" vertex="1"><mxGeometry y="52" width="160" height="8" as="geometry"/></mxCell><mxCell id="elmlWudnamhMmCJbLNU5-28" value="Methods:&lt;br&gt;public Epic getEpic();" style="text;html=1;align=left;verticalAlign=middle;resizable=0;points=[];autosize=1;strokeColor=none;fillColor=none;fontSize=12;fontStyle=2" parent="zkfFHV4jXpPFQw0GAbJ--13" vertex="1"><mxGeometry y="60" width="160" height="40" as="geometry"/></mxCell><mxCell id="zkfFHV4jXpPFQw0GAbJ--16" value="" style="endArrow=block;endSize=10;endFill=0;shadow=0;strokeWidth=1;rounded=0;edgeStyle=elbowEdgeStyle;elbow=vertical;" parent="WIyWlLk6GJQsqaUBKTNV-1" source="zkfFHV4jXpPFQw0GAbJ--13" edge="1"><mxGeometry width="160" relative="1" as="geometry"><mxPoint x="210" y="373" as="sourcePoint"/><mxPoint x="335" y="340" as="targetPoint"/></mxGeometry></mxCell><mxCell id="elmlWudnamhMmCJbLNU5-8" value="&lt;span style=&quot;font-size: 12px; font-weight: 400;&quot;&gt;&lt;i&gt;InMemoryTaskDao&lt;/i&gt;&lt;/span&gt;" style="swimlane;fontStyle=1;align=center;verticalAlign=top;childLayout=stackLayout;horizontal=1;startSize=26;horizontalStack=0;resizeParent=1;resizeParentMax=0;resizeLast=0;collapsible=1;marginBottom=0;whiteSpace=wrap;html=1;fontSize=16;" parent="WIyWlLk6GJQsqaUBKTNV-1" vertex="1"><mxGeometry x="580" y="120" width="270" height="220" as="geometry"/></mxCell><mxCell id="elmlWudnamhMmCJbLNU5-9" value="&lt;i&gt;&lt;font style=&quot;font-size: 12px;&quot;&gt;Fields:&lt;br&gt;private Map&amp;lt;Task, Integer&amp;gt; &amp;nbsp;map;&lt;br&gt;private int taskId;&lt;br&gt;&lt;/font&gt;&lt;/i&gt;" style="text;strokeColor=none;fillColor=none;align=left;verticalAlign=top;spacingLeft=4;spacingRight=4;overflow=hidden;rotatable=0;points=[[0,0.5],[1,0.5]];portConstraint=eastwest;whiteSpace=wrap;html=1;fontSize=16;" parent="elmlWudnamhMmCJbLNU5-8" vertex="1"><mxGeometry y="26" width="270" height="64" as="geometry"/></mxCell><mxCell id="elmlWudnamhMmCJbLNU5-10" value="" style="line;strokeWidth=1;fillColor=none;align=left;verticalAlign=middle;spacingTop=-1;spacingLeft=3;spacingRight=3;rotatable=0;labelPosition=right;points=[];portConstraint=eastwest;strokeColor=inherit;fontSize=16;" parent="elmlWudnamhMmCJbLNU5-8" vertex="1"><mxGeometry y="90" width="270" height="8" as="geometry"/></mxCell><mxCell id="elmlWudnamhMmCJbLNU5-11" value="&lt;i style=&quot;font-size: 12px;&quot;&gt;&lt;br&gt;&lt;/i&gt;" style="text;strokeColor=none;fillColor=none;align=left;verticalAlign=top;spacingLeft=4;spacingRight=4;overflow=hidden;rotatable=0;points=[[0,0.5],[1,0.5]];portConstraint=eastwest;whiteSpace=wrap;html=1;fontSize=16;" parent="elmlWudnamhMmCJbLNU5-8" vertex="1"><mxGeometry y="98" width="270" height="122" as="geometry"/></mxCell><mxCell id="elmlWudnamhMmCJbLNU5-16" value="&lt;font style=&quot;font-size: 12px;&quot;&gt;Status&lt;/font&gt;" style="swimlane;fontStyle=0;childLayout=stackLayout;horizontal=1;startSize=26;fillColor=none;horizontalStack=0;resizeParent=1;resizeParentMax=0;resizeLast=0;collapsible=1;marginBottom=0;whiteSpace=wrap;html=1;fontSize=16;" parent="WIyWlLk6GJQsqaUBKTNV-1" vertex="1"><mxGeometry x="170" y="610" width="140" height="100" as="geometry"/></mxCell><mxCell id="elmlWudnamhMmCJbLNU5-18" value="&lt;font style=&quot;font-size: 12px;&quot;&gt;&lt;span style=&quot;&quot;&gt;N&lt;/span&gt;EW,&lt;br&gt;IN_PROGRESS,&lt;br&gt;DONE&lt;br&gt;&lt;/font&gt;" style="text;strokeColor=none;fillColor=none;align=left;verticalAlign=top;spacingLeft=4;spacingRight=4;overflow=hidden;rotatable=0;points=[[0,0.5],[1,0.5]];portConstraint=eastwest;whiteSpace=wrap;html=1;fontSize=16;" parent="elmlWudnamhMmCJbLNU5-16" vertex="1"><mxGeometry y="26" width="140" height="74" as="geometry"/></mxCell><mxCell id="elmlWudnamhMmCJbLNU5-31" value="&lt;span style=&quot;font-size: 12px;&quot;&gt;&lt;i&gt;TaskDao&lt;/i&gt;&lt;/span&gt;" style="swimlane;whiteSpace=wrap;html=1;fontSize=16;startSize=23;" parent="WIyWlLk6GJQsqaUBKTNV-1" vertex="1"><mxGeometry x="940" y="120" width="280" height="200" as="geometry"/></mxCell><mxCell id="0" value="&lt;i style=&quot;&quot;&gt;Methods:&lt;br&gt;public List&amp;lt;Task&amp;gt; getList();&lt;br&gt;public void removeAllTasks();&lt;br&gt;public Task getTaskById(int id);&lt;br&gt;public Task createTask(Task task);&lt;br&gt;public void updateTask(Task task);&lt;br&gt;public void removeById(int id);&lt;br&gt;private void addToMap(Task task);&lt;br&gt;private boolean isTask(Task task);&lt;br&gt;public List&amp;lt;SubTask&amp;gt; getSubTaskList(Epic epic);&lt;/i&gt;" style="text;html=1;align=left;verticalAlign=middle;resizable=0;points=[];autosize=1;strokeColor=none;fillColor=none;" vertex="1" parent="elmlWudnamhMmCJbLNU5-31"><mxGeometry y="26" width="280" height="160" as="geometry"/></mxCell><mxCell id="1" value="Manager" style="rounded=0;whiteSpace=wrap;html=1;" vertex="1" parent="WIyWlLk6GJQsqaUBKTNV-1"><mxGeometry x="1010" y="390" width="120" height="60" as="geometry"/></mxCell><mxCell id="3" value="" style="endArrow=classic;html=1;rounded=0;exitX=0.433;exitY=-0.05;exitDx=0;exitDy=0;exitPerimeter=0;" edge="1" parent="WIyWlLk6GJQsqaUBKTNV-1" source="1"><mxGeometry width="50" height="50" relative="1" as="geometry"><mxPoint x="1110" y="350" as="sourcePoint"/><mxPoint x="1070" y="320" as="targetPoint"/></mxGeometry></mxCell><mxCell id="4" value="" style="endArrow=classic;html=1;rounded=0;entryX=0;entryY=0.1;entryDx=0;entryDy=0;entryPerimeter=0;exitX=1.015;exitY=0.065;exitDx=0;exitDy=0;exitPerimeter=0;" edge="1" parent="WIyWlLk6GJQsqaUBKTNV-1" source="elmlWudnamhMmCJbLNU5-8" target="elmlWudnamhMmCJbLNU5-31"><mxGeometry width="50" height="50" relative="1" as="geometry"><mxPoint x="750" y="280" as="sourcePoint"/><mxPoint x="800" y="230" as="targetPoint"/></mxGeometry></mxCell><mxCell id="5" value="Task&lt;br&gt;" style="rounded=0;whiteSpace=wrap;html=1;" vertex="1" parent="WIyWlLk6GJQsqaUBKTNV-1"><mxGeometry x="610" y="400" width="120" height="60" as="geometry"/></mxCell><mxCell id="7" value="" style="endArrow=classic;html=1;rounded=0;exitX=0;exitY=0;exitDx=0;exitDy=0;entryX=1.017;entryY=0.966;entryDx=0;entryDy=0;entryPerimeter=0;" edge="1" parent="WIyWlLk6GJQsqaUBKTNV-1" source="5" target="zkfFHV4jXpPFQw0GAbJ--5"><mxGeometry width="50" height="50" relative="1" as="geometry"><mxPoint x="460" y="350" as="sourcePoint"/><mxPoint x="510" y="300" as="targetPoint"/></mxGeometry></mxCell></root></mxGraphModel></diagram></mxfile>